<?xml version="1.0" encoding="UTF-8" standalone="no"?>
<!DOCTYPE svg PUBLIC "-//W3C//DTD SVG 1.1//EN"
 "http://www.w3.org/Graphics/SVG/1.1/DTD/svg11.dtd">
<!-- Generated by graphviz version 2.43.0 (0)
 -->
<!-- Title: G Pages: 1 -->
<svg width="317pt" height="434pt"
 viewBox="0.00 0.00 317.08 434.41" xmlns="http://www.w3.org/2000/svg" xmlns:xlink="http://www.w3.org/1999/xlink">
<g id="graph0" class="graph" transform="scale(1 1) rotate(0) translate(4 430.41)">
<title>G</title><style>.edge>path:hover{stroke-width:8}</style>
<polygon fill="white" stroke="transparent" points="-4,4 -4,-430.41 313.08,-430.41 313.08,4 -4,4"/>
<!-- app -->
<g id="node1" class="node">
<title>app</title><style>.edge>path:hover{stroke-width:8}</style>
<ellipse fill="#8f3d3d" stroke="black" cx="144.02" cy="-18" rx="27" ry="18"/>
<text text-anchor="middle" x="144.02" y="-15.5" font-family="Helvetica,sans-Serif" font-size="10.00" fill="#ffffff">app</text>
</g>
<!-- flasgger -->
<g id="node2" class="node">
<title>flasgger</title><style>.edge>path:hover{stroke-width:8}</style>
<ellipse fill="#a2b653" stroke="black" cx="30.02" cy="-90" rx="30.04" ry="18"/>
<text text-anchor="middle" x="30.02" y="-87.5" font-family="Helvetica,sans-Serif" font-size="10.00" fill="#000000">flasgger</text>
</g>
<!-- flasgger&#45;&gt;app -->
<g id="edge1" class="edge">
<title>flasgger&#45;&gt;app</title><style>.edge>path:hover{stroke-width:8}</style>
<path fill="none" stroke="black" d="M50.4,-76.49C68.7,-65.25 95.73,-48.65 116.05,-36.18"/>
<polygon fill="#a2b653" stroke="black" points="117.89,-39.15 124.58,-30.94 114.23,-33.19 117.89,-39.15"/>
</g>
<!-- flask -->
<g id="node3" class="node">
<title>flask</title><style>.edge>path:hover{stroke-width:8}</style>
<ellipse fill="#40c073" stroke="black" cx="105.02" cy="-90" rx="27" ry="18"/>
<text text-anchor="middle" x="105.02" y="-87.5" font-family="Helvetica,sans-Serif" font-size="10.00" fill="#000000">flask</text>
</g>
<!-- flask&#45;&gt;app -->
<g id="edge2" class="edge">
<title>flask&#45;&gt;app</title><style>.edge>path:hover{stroke-width:8}</style>
<path fill="none" stroke="black" d="M114.07,-72.76C118.84,-64.19 124.8,-53.49 130.15,-43.9"/>
<polygon fill="#40c073" stroke="black" points="133.22,-45.59 135.03,-35.15 127.1,-42.18 133.22,-45.59"/>
</g>
<!-- hardware -->
<g id="node4" class="node">
<title>hardware</title><style>.edge>path:hover{stroke-width:8}</style>
<ellipse fill="#537bb6" stroke="black" cx="183.02" cy="-90" rx="32.93" ry="18"/>
<text text-anchor="middle" x="183.02" y="-87.5" font-family="Helvetica,sans-Serif" font-size="10.00" fill="#ffffff">hardware</text>
</g>
<!-- hardware&#45;&gt;app -->
<g id="edge3" class="edge">
<title>hardware&#45;&gt;app</title><style>.edge>path:hover{stroke-width:8}</style>
<path fill="none" stroke="black" d="M173.78,-72.41C169.12,-64.04 163.36,-53.71 158.16,-44.37"/>
<polygon fill="#537bb6" stroke="black" points="161.12,-42.5 153.2,-35.47 155.01,-45.91 161.12,-42.5"/>
</g>
<!-- hardware_utility -->
<g id="node5" class="node">
<title>hardware_utility</title><style>.edge>path:hover{stroke-width:8}</style>
<ellipse fill="#537bb6" stroke="black" cx="174.02" cy="-165.21" rx="41.94" ry="21.43"/>
<text text-anchor="middle" x="174.02" y="-168.21" font-family="Helvetica,sans-Serif" font-size="10.00" fill="#ffffff">hardware.</text>
<text text-anchor="middle" x="174.02" y="-157.21" font-family="Helvetica,sans-Serif" font-size="10.00" fill="#ffffff">utility</text>
</g>
<!-- hardware_utility&#45;&gt;app -->
<g id="edge4" class="edge">
<title>hardware_utility&#45;&gt;app</title><style>.edge>path:hover{stroke-width:8}</style>
<path fill="none" stroke="black" d="M203.52,-150.08C225.51,-137.27 250.69,-116.52 244.02,-91"/>
<path fill="none" stroke="black" d="M244.02,-89C236.09,-58.64 203.87,-39.98 178.12,-29.64"/>
<polygon fill="#537bb6" stroke="black" points="179.23,-26.32 168.63,-26.08 176.77,-32.87 179.23,-26.32"/>
</g>
<!-- hardware_utility_OntologyChecker -->
<g id="node6" class="node">
<title>hardware_utility_OntologyChecker</title><style>.edge>path:hover{stroke-width:8}</style>
<ellipse fill="#4c75b3" stroke="black" cx="244.02" cy="-251.42" rx="65.11" ry="28.98"/>
<text text-anchor="middle" x="244.02" y="-259.92" font-family="Helvetica,sans-Serif" font-size="10.00" fill="#ffffff">hardware.</text>
<text text-anchor="middle" x="244.02" y="-248.92" font-family="Helvetica,sans-Serif" font-size="10.00" fill="#ffffff">utility.</text>
<text text-anchor="middle" x="244.02" y="-237.92" font-family="Helvetica,sans-Serif" font-size="10.00" fill="#ffffff">OntologyChecker</text>
</g>
<!-- hardware_utility_OntologyChecker&#45;&gt;app -->
<g id="edge5" class="edge">
<title>hardware_utility_OntologyChecker&#45;&gt;app</title><style>.edge>path:hover{stroke-width:8}</style>
<path fill="none" stroke="black" d="M240.61,-222.31C239.44,-205.74 239.4,-184.5 244.02,-166.21"/>
</g>
<!-- requests -->
<g id="node7" class="node">
<title>requests</title><style>.edge>path:hover{stroke-width:8}</style>
<ellipse fill="#ae33cc" stroke="black" cx="244.02" cy="-408.41" rx="31.58" ry="18"/>
<text text-anchor="middle" x="244.02" y="-405.91" font-family="Helvetica,sans-Serif" font-size="10.00" fill="#ffffff">requests</text>
</g>
<!-- requests&#45;&gt;app -->
<g id="edge6" class="edge">
<title>requests&#45;&gt;app</title><style>.edge>path:hover{stroke-width:8}</style>
<path fill="none" stroke="black" d="M247.04,-390.35C249.62,-371.89 251.81,-341.82 244.02,-317.41"/>
<path fill="none" stroke="black" d="M244.02,-316.41C230.6,-282.39 189.42,-311.42 170.02,-280.41 156.35,-258.56 157.77,-245.1 170.02,-222.43 189.66,-186.09 233.91,-206.26 244.02,-166.21"/>
<path fill="none" stroke="black" d="M244.02,-164.21C250.96,-132.42 252.25,-122.48 244.02,-91"/>
</g>
<!-- requests&#45;&gt;hardware_utility_OntologyChecker -->
<g id="edge7" class="edge">
<title>requests&#45;&gt;hardware_utility_OntologyChecker</title><style>.edge>path:hover{stroke-width:8}</style>
<path fill="none" stroke="black" d="M244.02,-316.41C241.43,-308.28 240.39,-299.27 240.21,-290.64"/>
<polygon fill="#ae33cc" stroke="black" points="243.71,-290.44 240.37,-280.39 236.72,-290.34 243.71,-290.44"/>
</g>
</g>
</svg>
