<?xml version="1.0" encoding="UTF-8" standalone="no"?>
<!DOCTYPE svg PUBLIC "-//W3C//DTD SVG 1.1//EN"
 "http://www.w3.org/Graphics/SVG/1.1/DTD/svg11.dtd">
<!-- Generated by graphviz version 2.43.0 (0)
 -->
<!-- Title: G Pages: 1 -->
<svg width="1257pt" height="832pt"
 viewBox="0.00 0.00 1257.18 832.32" xmlns="http://www.w3.org/2000/svg" xmlns:xlink="http://www.w3.org/1999/xlink">
<g id="graph0" class="graph" transform="scale(1 1) rotate(0) translate(4 828.32)">
<title>G</title><style>.edge>path:hover{stroke-width:8}</style>
<polygon fill="white" stroke="transparent" points="-4,4 -4,-828.32 1253.18,-828.32 1253.18,4 -4,4"/>
<!-- ftrobopy -->
<g id="node1" class="node">
<title>ftrobopy</title><style>.edge>path:hover{stroke-width:8}</style>
<ellipse fill="#b65353" stroke="black" cx="1013.13" cy="-806.32" rx="30.72" ry="18"/>
<text text-anchor="middle" x="1013.13" y="-803.82" font-family="Helvetica,sans-Serif" font-size="10.00" fill="#ffffff">ftrobopy</text>
</g>
<!-- hardware_generic_general_txt -->
<g id="node4" class="node">
<title>hardware_generic_general_txt</title><style>.edge>path:hover{stroke-width:8}</style>
<ellipse fill="#f3f30c" stroke="black" cx="754.13" cy="-592.35" rx="45.92" ry="28.98"/>
<text text-anchor="middle" x="754.13" y="-600.85" font-family="Helvetica,sans-Serif" font-size="10.00" fill="#000000">hardware.</text>
<text text-anchor="middle" x="754.13" y="-589.85" font-family="Helvetica,sans-Serif" font-size="10.00" fill="#000000">generic.</text>
<text text-anchor="middle" x="754.13" y="-578.85" font-family="Helvetica,sans-Serif" font-size="10.00" fill="#000000">general_txt</text>
</g>
<!-- ftrobopy&#45;&gt;hardware_generic_general_txt -->
<g id="edge1" class="edge">
<title>ftrobopy&#45;&gt;hardware_generic_general_txt</title><style>.edge>path:hover{stroke-width:8}</style>
<path fill="none" stroke="black" d="M1016.49,-788.24C1021.39,-757.88 1026.7,-694.23 994.13,-657.34 951.6,-609.18 916.18,-638 854.13,-621.34 838.27,-617.08 821.05,-612.31 805.43,-607.93"/>
<polygon fill="#b65353" stroke="black" points="806,-604.46 795.43,-605.12 804.11,-611.2 806,-604.46"/>
</g>
<!-- hardware_generic -->
<g id="node2" class="node">
<title>hardware_generic</title><style>.edge>path:hover{stroke-width:8}</style>
<ellipse fill="#f9f910" stroke="black" cx="565.13" cy="-310.4" rx="41.94" ry="21.43"/>
<text text-anchor="middle" x="565.13" y="-313.4" font-family="Helvetica,sans-Serif" font-size="10.00" fill="#000000">hardware.</text>
<text text-anchor="middle" x="565.13" y="-302.4" font-family="Helvetica,sans-Serif" font-size="10.00" fill="#000000">generic</text>
</g>
<!-- hardware_txts_EC1 -->
<g id="node13" class="node">
<title>hardware_txts_EC1</title><style>.edge>path:hover{stroke-width:8}</style>
<ellipse fill="#b0b03a" stroke="black" cx="786.13" cy="-179.42" rx="41.94" ry="28.98"/>
<text text-anchor="middle" x="786.13" y="-187.92" font-family="Helvetica,sans-Serif" font-size="10.00" fill="#000000">hardware.</text>
<text text-anchor="middle" x="786.13" y="-176.92" font-family="Helvetica,sans-Serif" font-size="10.00" fill="#000000">txts.</text>
<text text-anchor="middle" x="786.13" y="-165.92" font-family="Helvetica,sans-Serif" font-size="10.00" fill="#000000">EC1</text>
</g>
<!-- hardware_generic&#45;&gt;hardware_txts_EC1 -->
<g id="edge2" class="edge">
<title>hardware_generic&#45;&gt;hardware_txts_EC1</title><style>.edge>path:hover{stroke-width:8}</style>
<path fill="none" stroke="black" d="M574.13,-244.41C566.49,-208.33 701.67,-221.56 736.13,-208.41 739.58,-207.09 743.09,-205.56 746.56,-203.92"/>
<polygon fill="#f9f910" stroke="black" points="748.26,-206.98 755.6,-199.34 745.1,-200.74 748.26,-206.98"/>
</g>
<!-- hardware_txts_HBW1 -->
<g id="node14" class="node">
<title>hardware_txts_HBW1</title><style>.edge>path:hover{stroke-width:8}</style>
<ellipse fill="#b0b03a" stroke="black" cx="382.13" cy="-179.42" rx="41.94" ry="28.98"/>
<text text-anchor="middle" x="382.13" y="-187.92" font-family="Helvetica,sans-Serif" font-size="10.00" fill="#000000">hardware.</text>
<text text-anchor="middle" x="382.13" y="-176.92" font-family="Helvetica,sans-Serif" font-size="10.00" fill="#000000">txts.</text>
<text text-anchor="middle" x="382.13" y="-165.92" font-family="Helvetica,sans-Serif" font-size="10.00" fill="#000000">HBW1</text>
</g>
<!-- hardware_generic&#45;&gt;hardware_txts_HBW1 -->
<g id="edge3" class="edge">
<title>hardware_generic&#45;&gt;hardware_txts_HBW1</title><style>.edge>path:hover{stroke-width:8}</style>
<path fill="none" stroke="black" d="M574.13,-244.41C560.64,-180.71 492.61,-232.52 432.13,-208.41 428.69,-207.04 425.2,-205.48 421.74,-203.81"/>
<polygon fill="#f9f910" stroke="black" points="423.21,-200.63 412.71,-199.19 420.02,-206.86 423.21,-200.63"/>
</g>
<!-- hardware_txts_MM1 -->
<g id="node15" class="node">
<title>hardware_txts_MM1</title><style>.edge>path:hover{stroke-width:8}</style>
<ellipse fill="#b0b03a" stroke="black" cx="483.13" cy="-179.42" rx="41.94" ry="28.98"/>
<text text-anchor="middle" x="483.13" y="-187.92" font-family="Helvetica,sans-Serif" font-size="10.00" fill="#000000">hardware.</text>
<text text-anchor="middle" x="483.13" y="-176.92" font-family="Helvetica,sans-Serif" font-size="10.00" fill="#000000">txts.</text>
<text text-anchor="middle" x="483.13" y="-165.92" font-family="Helvetica,sans-Serif" font-size="10.00" fill="#000000">MM1</text>
</g>
<!-- hardware_generic&#45;&gt;hardware_txts_MM1 -->
<g id="edge4" class="edge">
<title>hardware_generic&#45;&gt;hardware_txts_MM1</title><style>.edge>path:hover{stroke-width:8}</style>
<path fill="none" stroke="black" d="M574.13,-244.41C572.75,-237.91 546.56,-219.91 522.63,-204.65"/>
<polygon fill="#f9f910" stroke="black" points="524.29,-201.56 513.97,-199.18 520.56,-207.48 524.29,-201.56"/>
</g>
<!-- hardware_txts_OV1 -->
<g id="node16" class="node">
<title>hardware_txts_OV1</title><style>.edge>path:hover{stroke-width:8}</style>
<ellipse fill="#b0b03a" stroke="black" cx="685.13" cy="-179.42" rx="41.94" ry="28.98"/>
<text text-anchor="middle" x="685.13" y="-187.92" font-family="Helvetica,sans-Serif" font-size="10.00" fill="#000000">hardware.</text>
<text text-anchor="middle" x="685.13" y="-176.92" font-family="Helvetica,sans-Serif" font-size="10.00" fill="#000000">txts.</text>
<text text-anchor="middle" x="685.13" y="-165.92" font-family="Helvetica,sans-Serif" font-size="10.00" fill="#000000">OV1</text>
</g>
<!-- hardware_generic&#45;&gt;hardware_txts_OV1 -->
<g id="edge5" class="edge">
<title>hardware_generic&#45;&gt;hardware_txts_OV1</title><style>.edge>path:hover{stroke-width:8}</style>
<path fill="none" stroke="black" d="M574.13,-244.41C573.91,-243.38 612.71,-221.22 644.49,-203.27"/>
<polygon fill="#f9f910" stroke="black" points="646.24,-206.3 653.23,-198.33 642.8,-200.2 646.24,-206.3"/>
</g>
<!-- hardware_txts_SM1 -->
<g id="node17" class="node">
<title>hardware_txts_SM1</title><style>.edge>path:hover{stroke-width:8}</style>
<ellipse fill="#b0b03a" stroke="black" cx="281.13" cy="-179.42" rx="41.94" ry="28.98"/>
<text text-anchor="middle" x="281.13" y="-187.92" font-family="Helvetica,sans-Serif" font-size="10.00" fill="#000000">hardware.</text>
<text text-anchor="middle" x="281.13" y="-176.92" font-family="Helvetica,sans-Serif" font-size="10.00" fill="#000000">txts.</text>
<text text-anchor="middle" x="281.13" y="-165.92" font-family="Helvetica,sans-Serif" font-size="10.00" fill="#000000">SM1</text>
</g>
<!-- hardware_generic&#45;&gt;hardware_txts_SM1 -->
<g id="edge6" class="edge">
<title>hardware_generic&#45;&gt;hardware_txts_SM1</title><style>.edge>path:hover{stroke-width:8}</style>
<path fill="none" stroke="black" d="M571.5,-289.39C574.67,-276.71 577.22,-260.01 574.13,-245.41"/>
<path fill="none" stroke="black" d="M574.13,-244.41C562.82,-191 382.79,-226.03 331.13,-208.41 327.58,-207.2 323.98,-205.74 320.44,-204.12"/>
<polygon fill="#f9f910" stroke="black" points="321.76,-200.87 311.25,-199.57 318.66,-207.14 321.76,-200.87"/>
</g>
<!-- hardware_txts_VGR1 -->
<g id="node18" class="node">
<title>hardware_txts_VGR1</title><style>.edge>path:hover{stroke-width:8}</style>
<ellipse fill="#b0b03a" stroke="black" cx="584.13" cy="-179.42" rx="41.94" ry="28.98"/>
<text text-anchor="middle" x="584.13" y="-187.92" font-family="Helvetica,sans-Serif" font-size="10.00" fill="#000000">hardware.</text>
<text text-anchor="middle" x="584.13" y="-176.92" font-family="Helvetica,sans-Serif" font-size="10.00" fill="#000000">txts.</text>
<text text-anchor="middle" x="584.13" y="-165.92" font-family="Helvetica,sans-Serif" font-size="10.00" fill="#000000">VGR1</text>
</g>
<!-- hardware_generic&#45;&gt;hardware_txts_VGR1 -->
<g id="edge7" class="edge">
<title>hardware_generic&#45;&gt;hardware_txts_VGR1</title><style>.edge>path:hover{stroke-width:8}</style>
<path fill="none" stroke="black" d="M574.13,-244.41C572.32,-235.87 572.53,-226.63 573.69,-217.89"/>
<polygon fill="#f9f910" stroke="black" points="577.16,-218.39 575.44,-207.94 570.26,-217.18 577.16,-218.39"/>
</g>
<!-- hardware_generic_env_and_cam_txts -->
<g id="node3" class="node">
<title>hardware_generic_env_and_cam_txts</title><style>.edge>path:hover{stroke-width:8}</style>
<ellipse fill="#919130" stroke="black" cx="855.13" cy="-404.38" rx="70.01" ry="28.98"/>
<text text-anchor="middle" x="855.13" y="-412.88" font-family="Helvetica,sans-Serif" font-size="10.00" fill="#000000">hardware.</text>
<text text-anchor="middle" x="855.13" y="-401.88" font-family="Helvetica,sans-Serif" font-size="10.00" fill="#000000">generic.</text>
<text text-anchor="middle" x="855.13" y="-390.88" font-family="Helvetica,sans-Serif" font-size="10.00" fill="#000000">env_and_cam_txts</text>
</g>
<!-- hardware_generic_env_and_cam_txts&#45;&gt;hardware_txts_EC1 -->
<g id="edge8" class="edge">
<title>hardware_generic_env_and_cam_txts&#45;&gt;hardware_txts_EC1</title><style>.edge>path:hover{stroke-width:8}</style>
<path fill="none" stroke="black" d="M846.53,-375.6C834.17,-335.66 811.36,-261.94 797.58,-217.43"/>
<polygon fill="#919130" stroke="black" points="800.92,-216.37 794.62,-207.86 794.23,-218.44 800.92,-216.37"/>
</g>
<!-- hardware_generic_general_txt&#45;&gt;hardware_generic_env_and_cam_txts -->
<g id="edge9" class="edge">
<title>hardware_generic_general_txt&#45;&gt;hardware_generic_env_and_cam_txts</title><style>.edge>path:hover{stroke-width:8}</style>
<path fill="none" stroke="black" d="M758.03,-563.46C762.51,-542.41 772.05,-514.64 792.13,-499.37"/>
</g>
<!-- hardware_generic_high_bay_warehouse_txts -->
<g id="node5" class="node">
<title>hardware_generic_high_bay_warehouse_txts</title><style>.edge>path:hover{stroke-width:8}</style>
<ellipse fill="#919130" stroke="black" cx="297.13" cy="-404.38" rx="91.85" ry="28.98"/>
<text text-anchor="middle" x="297.13" y="-412.88" font-family="Helvetica,sans-Serif" font-size="10.00" fill="#000000">hardware.</text>
<text text-anchor="middle" x="297.13" y="-401.88" font-family="Helvetica,sans-Serif" font-size="10.00" fill="#000000">generic.</text>
<text text-anchor="middle" x="297.13" y="-390.88" font-family="Helvetica,sans-Serif" font-size="10.00" fill="#000000">high_bay_warehouse_txts</text>
</g>
<!-- hardware_generic_general_txt&#45;&gt;hardware_generic_high_bay_warehouse_txts -->
<g id="edge10" class="edge">
<title>hardware_generic_general_txt&#45;&gt;hardware_generic_high_bay_warehouse_txts</title><style>.edge>path:hover{stroke-width:8}</style>
<path fill="none" stroke="black" d="M709.44,-584.61C659.38,-575.92 576.67,-558.16 511.13,-527.36 471.06,-508.52 468.22,-491.94 430.13,-469.37 407.65,-456.06 381.98,-443.2 359.23,-432.55"/>
<polygon fill="#f3f30c" stroke="black" points="360.55,-429.3 350.01,-428.27 357.61,-435.65 360.55,-429.3"/>
</g>
<!-- hardware_generic_multi_processing_station_txts -->
<g id="node7" class="node">
<title>hardware_generic_multi_processing_station_txts</title><style>.edge>path:hover{stroke-width:8}</style>
<ellipse fill="#bcbc2f" stroke="black" cx="623.13" cy="-498.37" rx="103.48" ry="28.98"/>
<text text-anchor="middle" x="623.13" y="-506.87" font-family="Helvetica,sans-Serif" font-size="10.00" fill="#000000">hardware.</text>
<text text-anchor="middle" x="623.13" y="-495.87" font-family="Helvetica,sans-Serif" font-size="10.00" fill="#000000">generic.</text>
<text text-anchor="middle" x="623.13" y="-484.87" font-family="Helvetica,sans-Serif" font-size="10.00" fill="#000000">multi_processing_station_txts</text>
</g>
<!-- hardware_generic_general_txt&#45;&gt;hardware_generic_multi_processing_station_txts -->
<g id="edge11" class="edge">
<title>hardware_generic_general_txt&#45;&gt;hardware_generic_multi_processing_station_txts</title><style>.edge>path:hover{stroke-width:8}</style>
<path fill="none" stroke="black" d="M724.07,-570.25C707.7,-558.75 687.09,-544.28 668.77,-531.42"/>
<polygon fill="#f3f30c" stroke="black" points="670.73,-528.52 660.54,-525.64 666.71,-534.25 670.73,-528.52"/>
</g>
<!-- hardware_generic_sorting_machine_txts -->
<g id="node9" class="node">
<title>hardware_generic_sorting_machine_txts</title><style>.edge>path:hover{stroke-width:8}</style>
<ellipse fill="#919130" stroke="black" cx="109.13" cy="-404.38" rx="77.56" ry="28.98"/>
<text text-anchor="middle" x="109.13" y="-412.88" font-family="Helvetica,sans-Serif" font-size="10.00" fill="#000000">hardware.</text>
<text text-anchor="middle" x="109.13" y="-401.88" font-family="Helvetica,sans-Serif" font-size="10.00" fill="#000000">generic.</text>
<text text-anchor="middle" x="109.13" y="-390.88" font-family="Helvetica,sans-Serif" font-size="10.00" fill="#000000">sorting_machine_txts</text>
</g>
<!-- hardware_generic_general_txt&#45;&gt;hardware_generic_sorting_machine_txts -->
<g id="edge12" class="edge">
<title>hardware_generic_general_txt&#45;&gt;hardware_generic_sorting_machine_txts</title><style>.edge>path:hover{stroke-width:8}</style>
<path fill="none" stroke="black" d="M708.18,-589.91C628.38,-586.24 459.92,-573.22 326.13,-527.36 261.87,-505.33 194.72,-464.37 152.45,-436.03"/>
<polygon fill="#f3f30c" stroke="black" points="154.32,-433.07 144.08,-430.37 150.4,-438.87 154.32,-433.07"/>
</g>
<!-- hardware_generic_vacuum_gripper_txts -->
<g id="node10" class="node">
<title>hardware_generic_vacuum_gripper_txts</title><style>.edge>path:hover{stroke-width:8}</style>
<ellipse fill="#919130" stroke="black" cx="653.13" cy="-404.38" rx="75.82" ry="28.98"/>
<text text-anchor="middle" x="653.13" y="-412.88" font-family="Helvetica,sans-Serif" font-size="10.00" fill="#000000">hardware.</text>
<text text-anchor="middle" x="653.13" y="-401.88" font-family="Helvetica,sans-Serif" font-size="10.00" fill="#000000">generic.</text>
<text text-anchor="middle" x="653.13" y="-390.88" font-family="Helvetica,sans-Serif" font-size="10.00" fill="#000000">vacuum_gripper_txts</text>
</g>
<!-- hardware_generic_general_txt&#45;&gt;hardware_generic_vacuum_gripper_txts -->
<g id="edge13" class="edge">
<title>hardware_generic_general_txt&#45;&gt;hardware_generic_vacuum_gripper_txts</title><style>.edge>path:hover{stroke-width:8}</style>
<path fill="none" stroke="black" d="M763.51,-563.86C768.69,-543.04 771.08,-515.38 754.13,-499.37"/>
<path fill="none" stroke="black" d="M754.13,-497.37C743.2,-487.04 745.4,-480.35 735.13,-469.37 723.99,-457.48 710.52,-446.02 697.74,-436.16"/>
<polygon fill="#f3f30c" stroke="black" points="699.57,-433.16 689.47,-429.93 695.35,-438.75 699.57,-433.16"/>
</g>
<!-- hardware_generic_high_bay_warehouse_txts&#45;&gt;hardware_txts_HBW1 -->
<g id="edge14" class="edge">
<title>hardware_generic_high_bay_warehouse_txts&#45;&gt;hardware_txts_HBW1</title><style>.edge>path:hover{stroke-width:8}</style>
<path fill="none" stroke="black" d="M307.89,-375.14C323.18,-335.05 351.18,-261.59 368.08,-217.26"/>
<polygon fill="#919130" stroke="black" points="371.42,-218.32 371.71,-207.73 364.88,-215.83 371.42,-218.32"/>
</g>
<!-- hardware_generic_milling_machine_txts -->
<g id="node6" class="node">
<title>hardware_generic_milling_machine_txts</title><style>.edge>path:hover{stroke-width:8}</style>
<ellipse fill="#9b9b26" stroke="black" cx="483.13" cy="-404.38" rx="76.24" ry="28.98"/>
<text text-anchor="middle" x="483.13" y="-412.88" font-family="Helvetica,sans-Serif" font-size="10.00" fill="#000000">hardware.</text>
<text text-anchor="middle" x="483.13" y="-401.88" font-family="Helvetica,sans-Serif" font-size="10.00" fill="#000000">generic.</text>
<text text-anchor="middle" x="483.13" y="-390.88" font-family="Helvetica,sans-Serif" font-size="10.00" fill="#000000">milling_machine_txts</text>
</g>
<!-- hardware_generic_oven_and_wt_txts -->
<g id="node8" class="node">
<title>hardware_generic_oven_and_wt_txts</title><style>.edge>path:hover{stroke-width:8}</style>
<ellipse fill="#8a8a2e" stroke="black" cx="731.13" cy="-310.4" rx="67.76" ry="28.98"/>
<text text-anchor="middle" x="731.13" y="-318.9" font-family="Helvetica,sans-Serif" font-size="10.00" fill="#000000">hardware.</text>
<text text-anchor="middle" x="731.13" y="-307.9" font-family="Helvetica,sans-Serif" font-size="10.00" fill="#000000">generic.</text>
<text text-anchor="middle" x="731.13" y="-296.9" font-family="Helvetica,sans-Serif" font-size="10.00" fill="#000000">oven_and_wt_txts</text>
</g>
<!-- hardware_generic_milling_machine_txts&#45;&gt;hardware_generic_oven_and_wt_txts -->
<g id="edge15" class="edge">
<title>hardware_generic_milling_machine_txts&#45;&gt;hardware_generic_oven_and_wt_txts</title><style>.edge>path:hover{stroke-width:8}</style>
<path fill="none" stroke="black" d="M536.63,-383.54C576.18,-368.87 630.05,-348.89 671.07,-333.67"/>
<polygon fill="#9b9b26" stroke="black" points="672.52,-336.87 680.68,-330.11 670.08,-330.31 672.52,-336.87"/>
</g>
<!-- hardware_generic_milling_machine_txts&#45;&gt;hardware_txts_MM1 -->
<g id="edge16" class="edge">
<title>hardware_generic_milling_machine_txts&#45;&gt;hardware_txts_MM1</title><style>.edge>path:hover{stroke-width:8}</style>
<path fill="none" stroke="black" d="M483.13,-375.14C483.13,-335.44 483.13,-263 483.13,-218.55"/>
<polygon fill="#9b9b26" stroke="black" points="486.63,-218.43 483.13,-208.43 479.63,-218.43 486.63,-218.43"/>
</g>
<!-- hardware_generic_multi_processing_station_txts&#45;&gt;hardware_generic_milling_machine_txts -->
<g id="edge17" class="edge">
<title>hardware_generic_multi_processing_station_txts&#45;&gt;hardware_generic_milling_machine_txts</title><style>.edge>path:hover{stroke-width:8}</style>
<path fill="none" stroke="black" d="M583.76,-471.5C566.66,-460.27 546.52,-447.04 528.78,-435.38"/>
<polygon fill="#bcbc2f" stroke="black" points="530.56,-432.36 520.28,-429.79 526.71,-438.21 530.56,-432.36"/>
</g>
<!-- hardware_generic_multi_processing_station_txts&#45;&gt;hardware_generic_oven_and_wt_txts -->
<g id="edge18" class="edge">
<title>hardware_generic_multi_processing_station_txts&#45;&gt;hardware_generic_oven_and_wt_txts</title><style>.edge>path:hover{stroke-width:8}</style>
<path fill="none" stroke="black" d="M693.04,-476.95C725.15,-462.86 756.36,-440.22 757.13,-405.38"/>
<path fill="none" stroke="black" d="M757.13,-403.38C757.53,-384.97 752.7,-365.24 747.1,-348.79"/>
<polygon fill="#bcbc2f" stroke="black" points="750.25,-347.22 743.55,-339.01 743.67,-349.61 750.25,-347.22"/>
</g>
<!-- hardware_generic_oven_and_wt_txts&#45;&gt;hardware_txts_OV1 -->
<g id="edge19" class="edge">
<title>hardware_generic_oven_and_wt_txts&#45;&gt;hardware_txts_OV1</title><style>.edge>path:hover{stroke-width:8}</style>
<path fill="none" stroke="black" d="M721.15,-281.41C714.47,-262.69 705.61,-237.86 698.35,-217.5"/>
<polygon fill="#8a8a2e" stroke="black" points="701.59,-216.15 694.93,-207.91 694.99,-218.5 701.59,-216.15"/>
</g>
<!-- hardware_generic_sorting_machine_txts&#45;&gt;hardware_txts_SM1 -->
<g id="edge20" class="edge">
<title>hardware_generic_sorting_machine_txts&#45;&gt;hardware_txts_SM1</title><style>.edge>path:hover{stroke-width:8}</style>
<path fill="none" stroke="black" d="M130.22,-376.04C161.9,-334.97 221.7,-257.46 255.73,-213.33"/>
<polygon fill="#919130" stroke="black" points="258.64,-215.29 261.98,-205.24 253.1,-211.02 258.64,-215.29"/>
</g>
<!-- hardware_generic_vacuum_gripper_txts&#45;&gt;hardware_txts_VGR1 -->
<g id="edge21" class="edge">
<title>hardware_generic_vacuum_gripper_txts&#45;&gt;hardware_txts_VGR1</title><style>.edge>path:hover{stroke-width:8}</style>
<path fill="none" stroke="black" d="M644.7,-375.25C637.26,-350.51 626.09,-313.54 616.13,-281.41 609.54,-260.17 602.04,-236.46 595.95,-217.36"/>
<polygon fill="#919130" stroke="black" points="599.28,-216.29 592.91,-207.82 592.61,-218.41 599.28,-216.29"/>
</g>
<!-- hardware_init_factory -->
<g id="node11" class="node">
<title>hardware_init_factory</title><style>.edge>path:hover{stroke-width:8}</style>
<ellipse fill="#818137" stroke="black" cx="620.13" cy="-21.21" rx="45.92" ry="21.43"/>
<text text-anchor="middle" x="620.13" y="-24.21" font-family="Helvetica,sans-Serif" font-size="10.00" fill="#ffffff">hardware.</text>
<text text-anchor="middle" x="620.13" y="-13.21" font-family="Helvetica,sans-Serif" font-size="10.00" fill="#ffffff">init_factory</text>
</g>
<!-- hardware_txts -->
<g id="node12" class="node">
<title>hardware_txts</title><style>.edge>path:hover{stroke-width:8}</style>
<ellipse fill="#c2c247" stroke="black" cx="657.13" cy="-96.43" rx="44.98" ry="18"/>
<text text-anchor="middle" x="657.13" y="-93.93" font-family="Helvetica,sans-Serif" font-size="10.00" fill="#000000">hardware.txts</text>
</g>
<!-- hardware_txts&#45;&gt;hardware_init_factory -->
<g id="edge22" class="edge">
<title>hardware_txts&#45;&gt;hardware_init_factory</title><style>.edge>path:hover{stroke-width:8}</style>
<path fill="none" stroke="black" d="M648.55,-78.45C644.41,-70.27 639.35,-60.24 634.64,-50.93"/>
<polygon fill="#c2c247" stroke="black" points="637.74,-49.3 630.1,-41.95 631.49,-52.46 637.74,-49.3"/>
</g>
<!-- hardware_txts_EC1&#45;&gt;hardware_init_factory -->
<g id="edge23" class="edge">
<title>hardware_txts_EC1&#45;&gt;hardware_init_factory</title><style>.edge>path:hover{stroke-width:8}</style>
<path fill="none" stroke="black" d="M755.24,-159.58C749.04,-156.25 742.48,-153.02 736.13,-150.43 669.88,-123.4 550.04,-160.33 584.13,-97.43"/>
</g>
<!-- hardware_txts_HBW1&#45;&gt;hardware_init_factory -->
<g id="edge24" class="edge">
<title>hardware_txts_HBW1&#45;&gt;hardware_init_factory</title><style>.edge>path:hover{stroke-width:8}</style>
<path fill="none" stroke="black" d="M413.17,-159.94C419.35,-156.58 425.87,-153.24 432.13,-150.43 497.37,-121.06 550.04,-160.33 584.13,-97.43"/>
</g>
<!-- hardware_txts_MM1&#45;&gt;hardware_init_factory -->
<g id="edge25" class="edge">
<title>hardware_txts_MM1&#45;&gt;hardware_init_factory</title><style>.edge>path:hover{stroke-width:8}</style>
<path fill="none" stroke="black" d="M516.33,-161.23C539.51,-147.34 568.92,-125.49 584.13,-97.43"/>
</g>
<!-- hardware_txts_OV1&#45;&gt;hardware_init_factory -->
<g id="edge26" class="edge">
<title>hardware_txts_OV1&#45;&gt;hardware_init_factory</title><style>.edge>path:hover{stroke-width:8}</style>
<path fill="none" stroke="black" d="M655.37,-158.85C624,-137.63 579.66,-105.68 584.13,-97.43"/>
</g>
<!-- hardware_txts_SM1&#45;&gt;hardware_init_factory -->
<g id="edge27" class="edge">
<title>hardware_txts_SM1&#45;&gt;hardware_init_factory</title><style>.edge>path:hover{stroke-width:8}</style>
<path fill="none" stroke="black" d="M311.63,-159.43C317.91,-156.07 324.61,-152.87 331.13,-150.43 438.71,-110.12 529.4,-198.44 584.13,-97.43"/>
<path fill="none" stroke="black" d="M584.13,-95.43C591.89,-81.1 599.95,-64.86 606.47,-51.32"/>
<polygon fill="#b0b03a" stroke="black" points="609.76,-52.54 610.92,-42 603.45,-49.52 609.76,-52.54"/>
</g>
<!-- hardware_txts_VGR1&#45;&gt;hardware_init_factory -->
<g id="edge28" class="edge">
<title>hardware_txts_VGR1&#45;&gt;hardware_init_factory</title><style>.edge>path:hover{stroke-width:8}</style>
<path fill="none" stroke="black" d="M577.8,-150.55C575.55,-134.13 575.42,-113.5 584.13,-97.43"/>
</g>
<!-- hardware_utility_OntologyChecker -->
<g id="node19" class="node">
<title>hardware_utility_OntologyChecker</title><style>.edge>path:hover{stroke-width:8}</style>
<ellipse fill="#acac49" stroke="black" cx="1184.13" cy="-592.35" rx="65.11" ry="28.98"/>
<text text-anchor="middle" x="1184.13" y="-600.85" font-family="Helvetica,sans-Serif" font-size="10.00" fill="#000000">hardware.</text>
<text text-anchor="middle" x="1184.13" y="-589.85" font-family="Helvetica,sans-Serif" font-size="10.00" fill="#000000">utility.</text>
<text text-anchor="middle" x="1184.13" y="-578.85" font-family="Helvetica,sans-Serif" font-size="10.00" fill="#000000">OntologyChecker</text>
</g>
<!-- owlready2 -->
<g id="node20" class="node">
<title>owlready2</title><style>.edge>path:hover{stroke-width:8}</style>
<ellipse fill="#40c040" stroke="black" cx="1098.13" cy="-806.32" rx="35.82" ry="18"/>
<text text-anchor="middle" x="1098.13" y="-803.82" font-family="Helvetica,sans-Serif" font-size="10.00" fill="#000000">owlready2</text>
</g>
<!-- owlready2&#45;&gt;hardware_utility_OntologyChecker -->
<g id="edge29" class="edge">
<title>owlready2&#45;&gt;hardware_utility_OntologyChecker</title><style>.edge>path:hover{stroke-width:8}</style>
<path fill="none" stroke="black" d="M1124.29,-793.72C1147.89,-782.53 1179.58,-765.41 1184.13,-752.32"/>
<path fill="none" stroke="black" d="M1184.13,-751.32C1197.72,-712.16 1195.26,-664.18 1190.97,-631.44"/>
<polygon fill="#40c040" stroke="black" points="1194.41,-630.78 1189.53,-621.37 1187.48,-631.77 1194.41,-630.78"/>
</g>
<!-- paho -->
<g id="node21" class="node">
<title>paho</title><style>.edge>path:hover{stroke-width:8}</style>
<ellipse fill="#16f3f3" stroke="black" cx="226.13" cy="-686.33" rx="27" ry="18"/>
<text text-anchor="middle" x="226.13" y="-683.83" font-family="Helvetica,sans-Serif" font-size="10.00" fill="#000000">paho</text>
</g>
<!-- paho&#45;&gt;hardware_generic_env_and_cam_txts -->
<g id="edge30" class="edge">
<title>paho&#45;&gt;hardware_generic_env_and_cam_txts</title><style>.edge>path:hover{stroke-width:8}</style>
<path fill="none" stroke="black" d="M264.13,-591.35C286.54,-571.06 296.85,-570.92 326.13,-563.36 421.55,-538.72 680.34,-572.13 768.13,-527.36 782.73,-519.91 779.09,-509.29 792.13,-499.37"/>
<path fill="none" stroke="black" d="M792.13,-497.37C811.19,-482.86 826.54,-460.89 837.32,-442.05"/>
<polygon fill="#16f3f3" stroke="black" points="840.49,-443.55 842.24,-433.1 834.35,-440.18 840.49,-443.55"/>
</g>
<!-- paho&#45;&gt;hardware_generic_high_bay_warehouse_txts -->
<g id="edge31" class="edge">
<title>paho&#45;&gt;hardware_generic_high_bay_warehouse_txts</title><style>.edge>path:hover{stroke-width:8}</style>
<path fill="none" stroke="black" d="M188.13,-591.35C169.59,-554.91 166.15,-533.84 188.13,-499.37"/>
<path fill="none" stroke="black" d="M188.13,-497.37C203.41,-473.41 226.89,-452.44 248.16,-436.6"/>
<polygon fill="#16f3f3" stroke="black" points="250.44,-439.27 256.48,-430.57 246.33,-433.6 250.44,-439.27"/>
</g>
<!-- paho&#45;&gt;hardware_generic_milling_machine_txts -->
<g id="edge32" class="edge">
<title>paho&#45;&gt;hardware_generic_milling_machine_txts</title><style>.edge>path:hover{stroke-width:8}</style>
<path fill="none" stroke="black" d="M188.13,-497.37C240.59,-415.1 305.12,-462.86 398.13,-433.37 404.4,-431.39 410.92,-429.29 417.43,-427.18"/>
<polygon fill="#16f3f3" stroke="black" points="418.52,-430.51 426.95,-424.08 416.35,-423.85 418.52,-430.51"/>
</g>
<!-- paho&#45;&gt;hardware_generic_oven_and_wt_txts -->
<g id="edge33" class="edge">
<title>paho&#45;&gt;hardware_generic_oven_and_wt_txts</title><style>.edge>path:hover{stroke-width:8}</style>
<path fill="none" stroke="black" d="M220.16,-668.7C213.25,-650 201.13,-618.91 188.13,-593.35"/>
<path fill="none" stroke="black" d="M188.13,-591.35C165.38,-546.63 132.44,-560.9 95.13,-527.36 82.94,-516.4 79.36,-513.54 71.13,-499.37"/>
<path fill="none" stroke="black" d="M71.13,-497.37C45.59,-453.4 -14.2,-453.18 3.13,-405.38"/>
<path fill="none" stroke="black" d="M3.13,-403.38C48.01,-279.58 279.89,-390.09 616.13,-339.39 632.28,-336.96 649.49,-333.33 665.55,-329.5"/>
<polygon fill="#16f3f3" stroke="black" points="666.49,-332.87 675.37,-327.09 664.83,-326.07 666.49,-332.87"/>
</g>
<!-- paho&#45;&gt;hardware_generic_sorting_machine_txts -->
<g id="edge34" class="edge">
<title>paho&#45;&gt;hardware_generic_sorting_machine_txts</title><style>.edge>path:hover{stroke-width:8}</style>
<path fill="none" stroke="black" d="M71.13,-497.37C60.69,-479.39 68.45,-457.99 79.62,-440.36"/>
<polygon fill="#16f3f3" stroke="black" points="82.55,-442.27 85.31,-432.04 76.77,-438.32 82.55,-442.27"/>
</g>
<!-- paho&#45;&gt;hardware_generic_vacuum_gripper_txts -->
<g id="edge35" class="edge">
<title>paho&#45;&gt;hardware_generic_vacuum_gripper_txts</title><style>.edge>path:hover{stroke-width:8}</style>
<path fill="none" stroke="black" d="M228.67,-668.2C232.63,-647.56 242.22,-613.18 264.13,-593.35"/>
<path fill="none" stroke="black" d="M264.13,-591.35C300.51,-558.41 317.88,-560.45 354.13,-527.36 366.23,-516.31 365.02,-509.2 378.13,-499.37"/>
<path fill="none" stroke="black" d="M378.13,-497.37C391.23,-487.53 388.05,-477.77 402.13,-469.37 466.96,-430.7 495.29,-453.21 568.13,-433.37 574.67,-431.59 581.46,-429.6 588.21,-427.53"/>
<polygon fill="#16f3f3" stroke="black" points="589.56,-430.78 598.06,-424.45 587.47,-424.1 589.56,-430.78"/>
</g>
<!-- paho_mqtt -->
<g id="node22" class="node">
<title>paho_mqtt</title><style>.edge>path:hover{stroke-width:8}</style>
<ellipse fill="#16f3f3" stroke="black" cx="950.13" cy="-686.33" rx="35.14" ry="18"/>
<text text-anchor="middle" x="950.13" y="-683.83" font-family="Helvetica,sans-Serif" font-size="10.00" fill="#000000">paho.mqtt</text>
</g>
<!-- paho_mqtt&#45;&gt;hardware_generic_env_and_cam_txts -->
<g id="edge36" class="edge">
<title>paho_mqtt&#45;&gt;hardware_generic_env_and_cam_txts</title><style>.edge>path:hover{stroke-width:8}</style>
<path fill="none" stroke="black" d="M950.13,-591.35C934.22,-553.66 962.23,-539.24 953.13,-499.37"/>
<path fill="none" stroke="black" d="M953.13,-497.37C947.05,-470.76 926.07,-449.26 905.07,-433.76"/>
<polygon fill="#16f3f3" stroke="black" points="906.94,-430.79 896.74,-427.9 902.91,-436.52 906.94,-430.79"/>
</g>
<!-- paho_mqtt&#45;&gt;hardware_generic_high_bay_warehouse_txts -->
<g id="edge37" class="edge">
<title>paho_mqtt&#45;&gt;hardware_generic_high_bay_warehouse_txts</title><style>.edge>path:hover{stroke-width:8}</style>
<path fill="none" stroke="black" d="M416.13,-497.37C391.03,-477.17 362.49,-455.08 339.65,-437.61"/>
<polygon fill="#16f3f3" stroke="black" points="341.59,-434.69 331.51,-431.4 337.34,-440.25 341.59,-434.69"/>
</g>
<!-- paho_mqtt&#45;&gt;hardware_generic_milling_machine_txts -->
<g id="edge38" class="edge">
<title>paho_mqtt&#45;&gt;hardware_generic_milling_machine_txts</title><style>.edge>path:hover{stroke-width:8}</style>
<path fill="none" stroke="black" d="M416.13,-497.37C395.31,-480.62 415.18,-455.9 438.56,-436.31"/>
<polygon fill="#16f3f3" stroke="black" points="440.96,-438.87 446.57,-429.88 436.58,-433.41 440.96,-438.87"/>
</g>
<!-- paho_mqtt&#45;&gt;hardware_generic_oven_and_wt_txts -->
<g id="edge39" class="edge">
<title>paho_mqtt&#45;&gt;hardware_generic_oven_and_wt_txts</title><style>.edge>path:hover{stroke-width:8}</style>
<path fill="none" stroke="black" d="M953.13,-497.37C940.92,-443.88 969.89,-417 934.13,-375.39 903.07,-339.25 851.79,-323.29 808.54,-316.34"/>
<polygon fill="#16f3f3" stroke="black" points="809,-312.87 798.6,-314.87 807.98,-319.79 809,-312.87"/>
</g>
<!-- paho_mqtt&#45;&gt;hardware_generic_sorting_machine_txts -->
<g id="edge40" class="edge">
<title>paho_mqtt&#45;&gt;hardware_generic_sorting_machine_txts</title><style>.edge>path:hover{stroke-width:8}</style>
<path fill="none" stroke="black" d="M931.3,-671.04C923.82,-666 914.91,-660.74 906.13,-657.34 819.04,-623.63 789.51,-644.82 699.13,-621.34 576.55,-589.5 525.21,-611.01 430.13,-527.36 419.68,-518.17 426.96,-508.09 416.13,-499.37"/>
<path fill="none" stroke="black" d="M416.13,-497.37C330.91,-441.62 294.33,-460.31 196.13,-433.37 189.55,-431.57 182.72,-429.58 175.92,-427.52"/>
<polygon fill="#16f3f3" stroke="black" points="176.59,-424.07 166.01,-424.47 174.53,-430.76 176.59,-424.07"/>
</g>
<!-- paho_mqtt&#45;&gt;hardware_generic_vacuum_gripper_txts -->
<g id="edge41" class="edge">
<title>paho_mqtt&#45;&gt;hardware_generic_vacuum_gripper_txts</title><style>.edge>path:hover{stroke-width:8}</style>
<path fill="none" stroke="black" d="M953.95,-668.27C957.37,-649.2 960.43,-617.77 950.13,-593.35"/>
<path fill="none" stroke="black" d="M950.13,-591.35C918.42,-516.2 845.02,-574.02 778.13,-527.36 764.69,-517.98 766.04,-510.62 754.13,-499.37"/>
</g>
<!-- paho_mqtt_client -->
<g id="node23" class="node">
<title>paho_mqtt_client</title><style>.edge>path:hover{stroke-width:8}</style>
<ellipse fill="#16f3f3" stroke="black" cx="868.13" cy="-686.33" rx="28.98" ry="28.98"/>
<text text-anchor="middle" x="868.13" y="-694.83" font-family="Helvetica,sans-Serif" font-size="10.00" fill="#000000">paho.</text>
<text text-anchor="middle" x="868.13" y="-683.83" font-family="Helvetica,sans-Serif" font-size="10.00" fill="#000000">mqtt.</text>
<text text-anchor="middle" x="868.13" y="-672.83" font-family="Helvetica,sans-Serif" font-size="10.00" fill="#000000">client</text>
</g>
<!-- paho_mqtt_client&#45;&gt;hardware_generic_env_and_cam_txts -->
<g id="edge42" class="edge">
<title>paho_mqtt_client&#45;&gt;hardware_generic_env_and_cam_txts</title><style>.edge>path:hover{stroke-width:8}</style>
<path fill="none" stroke="black" d="M860.52,-658.35C856.63,-638.61 855.11,-612.11 868.13,-593.35"/>
</g>
<!-- paho_mqtt_client&#45;&gt;hardware_generic_high_bay_warehouse_txts -->
<g id="edge43" class="edge">
<title>paho_mqtt_client&#45;&gt;hardware_generic_high_bay_warehouse_txts</title><style>.edge>path:hover{stroke-width:8}</style>
<path fill="none" stroke="black" d="M340.13,-591.35C321.98,-581.94 335.18,-519.2 340.13,-499.37"/>
<path fill="none" stroke="black" d="M340.13,-497.37C345,-477.85 336.98,-457.46 326.6,-440.84"/>
<polygon fill="#16f3f3" stroke="black" points="329.49,-438.88 321.01,-432.53 323.68,-442.78 329.49,-438.88"/>
</g>
<!-- paho_mqtt_client&#45;&gt;hardware_generic_milling_machine_txts -->
<g id="edge44" class="edge">
<title>paho_mqtt_client&#45;&gt;hardware_generic_milling_machine_txts</title><style>.edge>path:hover{stroke-width:8}</style>
<path fill="none" stroke="black" d="M340.13,-497.37C348.78,-462.7 381.22,-440.25 413.02,-426.21"/>
<polygon fill="#16f3f3" stroke="black" points="414.51,-429.38 422.39,-422.3 411.82,-422.92 414.51,-429.38"/>
</g>
<!-- paho_mqtt_client&#45;&gt;hardware_generic_oven_and_wt_txts -->
<g id="edge45" class="edge">
<title>paho_mqtt_client&#45;&gt;hardware_generic_oven_and_wt_txts</title><style>.edge>path:hover{stroke-width:8}</style>
<path fill="none" stroke="black" d="M856.6,-659.62C828.07,-595.57 756.54,-432.17 757.13,-405.38"/>
</g>
<!-- paho_mqtt_client&#45;&gt;hardware_generic_sorting_machine_txts -->
<g id="edge46" class="edge">
<title>paho_mqtt_client&#45;&gt;hardware_generic_sorting_machine_txts</title><style>.edge>path:hover{stroke-width:8}</style>
<path fill="none" stroke="black" d="M839.35,-682.62C742.44,-673.12 429.14,-639.48 340.13,-593.35"/>
<path fill="none" stroke="black" d="M340.13,-591.35C313.28,-577.44 306.22,-574.53 278.13,-563.36 232.68,-545.28 211.31,-559.14 174.13,-527.36 148.13,-505.14 130.94,-469.86 120.8,-442.95"/>
<polygon fill="#16f3f3" stroke="black" points="124.06,-441.68 117.38,-433.45 117.47,-444.05 124.06,-441.68"/>
</g>
<!-- paho_mqtt_client&#45;&gt;hardware_generic_vacuum_gripper_txts -->
<g id="edge47" class="edge">
<title>paho_mqtt_client&#45;&gt;hardware_generic_vacuum_gripper_txts</title><style>.edge>path:hover{stroke-width:8}</style>
<path fill="none" stroke="black" d="M839.18,-683.01C767.81,-675.53 583.91,-645.11 511.13,-527.36 497.58,-505.44 497.14,-491.02 511.13,-469.37 520.31,-455.16 554.45,-439.55 586.95,-427.31"/>
<polygon fill="#16f3f3" stroke="black" points="588.33,-430.53 596.5,-423.79 585.91,-423.96 588.33,-430.53"/>
</g>
<!-- requests -->
<g id="node24" class="node">
<title>requests</title><style>.edge>path:hover{stroke-width:8}</style>
<ellipse fill="#4040c0" stroke="black" cx="1184.13" cy="-806.32" rx="31.58" ry="18"/>
<text text-anchor="middle" x="1184.13" y="-803.82" font-family="Helvetica,sans-Serif" font-size="10.00" fill="#ffffff">requests</text>
</g>
<!-- requests&#45;&gt;hardware_utility_OntologyChecker -->
<g id="edge48" class="edge">
<title>requests&#45;&gt;hardware_utility_OntologyChecker</title><style>.edge>path:hover{stroke-width:8}</style>
<path fill="none" stroke="black" d="M1181.32,-788.14C1180.27,-777.53 1180.15,-763.8 1184.13,-752.32"/>
</g>
<!-- setup_logger -->
<g id="node25" class="node">
<title>setup_logger</title><style>.edge>path:hover{stroke-width:8}</style>
<ellipse fill="#f316f3" stroke="black" cx="365.13" cy="-686.33" rx="42.27" ry="18"/>
<text text-anchor="middle" x="365.13" y="-683.83" font-family="Helvetica,sans-Serif" font-size="10.00" fill="#ffffff">setup_logger</text>
</g>
<!-- setup_logger&#45;&gt;hardware_generic_env_and_cam_txts -->
<g id="edge49" class="edge">
<title>setup_logger&#45;&gt;hardware_generic_env_and_cam_txts</title><style>.edge>path:hover{stroke-width:8}</style>
<path fill="none" stroke="black" d="M407.6,-684.81C519.2,-682.39 815.75,-668.84 868.13,-593.35"/>
<path fill="none" stroke="black" d="M868.13,-591.35C898.55,-547.5 884.39,-482.98 870.45,-442.61"/>
<polygon fill="#f316f3" stroke="black" points="873.72,-441.36 867.03,-433.14 867.14,-443.74 873.72,-441.36"/>
</g>
<!-- setup_logger&#45;&gt;hardware_generic_high_bay_warehouse_txts -->
<g id="edge50" class="edge">
<title>setup_logger&#45;&gt;hardware_generic_high_bay_warehouse_txts</title><style>.edge>path:hover{stroke-width:8}</style>
<path fill="none" stroke="black" d="M226.13,-591.35C185.37,-549.02 230.08,-480.88 264.7,-439.89"/>
<polygon fill="#f316f3" stroke="black" points="267.35,-442.17 271.24,-432.31 262.06,-437.59 267.35,-442.17"/>
</g>
<!-- setup_logger&#45;&gt;hardware_generic_milling_machine_txts -->
<g id="edge51" class="edge">
<title>setup_logger&#45;&gt;hardware_generic_milling_machine_txts</title><style>.edge>path:hover{stroke-width:8}</style>
<path fill="none" stroke="black" d="M351.78,-669.15C342.57,-656.87 331.12,-639.13 326.13,-621.34 307.87,-556.31 288.44,-525.43 326.13,-469.37 331.83,-460.89 377.54,-442.78 418.18,-427.99"/>
<polygon fill="#f316f3" stroke="black" points="419.62,-431.19 427.83,-424.5 417.24,-424.61 419.62,-431.19"/>
</g>
<!-- setup_logger&#45;&gt;hardware_generic_oven_and_wt_txts -->
<g id="edge52" class="edge">
<title>setup_logger&#45;&gt;hardware_generic_oven_and_wt_txts</title><style>.edge>path:hover{stroke-width:8}</style>
<path fill="none" stroke="black" d="M336.44,-672.88C312.06,-661.51 276.85,-643.17 250.13,-621.34 237.43,-610.97 237.45,-605.2 226.13,-593.35"/>
<path fill="none" stroke="black" d="M226.13,-591.35C214.81,-579.5 215.07,-573.41 202.13,-563.36 173.55,-541.18 156.7,-550.78 129.13,-527.36 117.47,-517.46 119.02,-511.02 109.13,-499.37"/>
<path fill="none" stroke="black" d="M109.13,-497.37C98.52,-484.87 97.76,-479.81 85.13,-469.37 60.27,-448.83 45.79,-455.28 22.13,-433.37 11.09,-423.16 -2,-419.52 3.13,-405.38"/>
</g>
<!-- setup_logger&#45;&gt;hardware_generic_sorting_machine_txts -->
<g id="edge53" class="edge">
<title>setup_logger&#45;&gt;hardware_generic_sorting_machine_txts</title><style>.edge>path:hover{stroke-width:8}</style>
<path fill="none" stroke="black" d="M109.13,-497.37C96.8,-482.85 95.96,-461.89 98.58,-443.65"/>
<polygon fill="#f316f3" stroke="black" points="102.07,-444.04 100.4,-433.57 95.18,-442.79 102.07,-444.04"/>
</g>
<!-- setup_logger&#45;&gt;hardware_generic_vacuum_gripper_txts -->
<g id="edge54" class="edge">
<title>setup_logger&#45;&gt;hardware_generic_vacuum_gripper_txts</title><style>.edge>path:hover{stroke-width:8}</style>
<path fill="none" stroke="black" d="M363.36,-668.3C359.46,-626.38 352.34,-520.11 378.13,-499.37"/>
</g>
</g>
</svg>
